
<svg version="1.1" id="Camada_1" xmlns="http://www.w3.org/2000/svg" xmlns:xlink="http://www.w3.org/1999/xlink" x="0px" y="0px"
	 viewBox="0 0 513 209" style="enable-background:new 0 0 513 209;" xml:space="preserve">
<style type="text/css">
	.st0{fill:#fff;stroke:#FFFFFF;stroke-width:3;stroke-miterlimit:10;}
</style>
<g>
	<path class="st0" d="M6.01,191.94h37.81L119.09,9.92c0.69-1.59,1.89-2.82,3.61-3.71c1.72-0.88,3.61-1.32,5.67-1.32
		c2.75,0,5.04,0.79,6.87,2.38c1.83,1.59,2.75,3.36,2.75,5.3c0,0.36,0,0.79,0,1.32s-0.23,0.97-0.69,1.32L51.04,191.67l222.39-0.79
		c2.75,0,5.1,0.66,7.05,1.99c1.94,1.33,2.92,3.13,2.92,5.43c0,1.94-0.98,3.66-2.92,5.17c-1.95,1.5-4.18,2.34-6.7,2.52
		c-0.23,0-0.34-0.09-0.34-0.27L5.66,198.82c-2.75,0-4.12-1.24-4.12-3.71C1.54,193,3.03,191.94,6.01,191.94z"/>
	<path class="st0" d="M197.46,136.56l1.38,1.06c1.14,0.89,2.18,1.33,3.09,1.33c0.23,0,0.69-0.04,1.37-0.13
		c0.69-0.09,1.26-0.22,1.72-0.4l2.41-0.79c0.46-0.35,1.14-0.7,2.06-1.06l2.06-1.32c4.35-3,8.25-6.49,11.69-10.47
		c3.44-3.97,6.41-8.08,8.94-12.32c0.69-1.41,2.06-2.12,4.13-2.12c1.38,0,2.46,0.4,3.27,1.19c0.8,0.79,1.2,1.64,1.2,2.52
		c0,1.95-1.03,4.24-3.09,6.89s-4.47,5.3-7.22,7.95c-2.75,2.65-5.39,5.03-7.91,7.15c-2.52,2.12-4.24,3.44-5.16,3.97l-2.75,1.85
		l-2.75,1.59l-3.44,1.32c-1.15,0.53-2.52,0.93-4.13,1.19c-1.61,0.27-2.98,0.4-4.12,0.4c-1.15-0.35-2.47-0.66-3.95-0.93
		c-1.49-0.27-2.7-0.75-3.61-1.46c-1.61,1.24-3.21,3.09-4.81,5.56c-1.61,2.48-3.5,4.99-5.67,7.55c-2.18,2.56-4.76,4.81-7.73,6.76
		c-2.98,1.95-6.53,2.91-10.66,2.91h-2.06c-2.29,0-4.35-0.44-6.19-1.32c-1.83-0.88-3.21-2.03-4.12-3.44l-1.72-2.65l-1.03-5.03
		c0.23-6,1.55-11.96,3.95-17.88c2.41-5.92,5.33-11.35,8.76-16.29l2.75-3.97c1.15-1.23,2.18-2.52,3.09-3.84
		c0.92-1.32,2.06-2.69,3.44-4.11l4.47-3.71l2.41-1.85c1.14-0.7,2.69-1.37,4.64-1.99c1.94-0.62,4.75-0.93,8.42-0.93l1.03,0.27h0.34
		c2.06,0.36,3.72,1.1,4.98,2.25c1.26,1.15,1.89,2.52,1.89,4.11v1.59l1.03,1.32c1.14,2.12,1.77,3.8,1.89,5.03
		c0.11,1.24,0.17,2.56,0.17,3.97l-0.69,5.03l-1.38,4.5c-0.46,1.24-0.98,2.65-1.55,4.24c-0.57,1.59-1.09,2.83-1.55,3.71
		L197.46,136.56z M180.96,115.37c-0.69,0.36-1.32,0.79-1.89,1.32c-0.57,0.53-1.09,0.97-1.55,1.32l-3.09,3.18l-1.38,1.59l-1.72,1.59
		c-1.83,2.48-3.55,4.86-5.16,7.15c-1.6,2.3-2.98,4.77-4.13,7.42l-1.72,3.71c-0.46,1.95-0.97,3.84-1.55,5.7
		c-0.57,1.85-0.86,3.75-0.86,5.7c0,0.89,0.06,1.77,0.17,2.65c0.12,0.89,0.4,1.5,0.86,1.85l0.69,0.79c0.46,0.36,0.81,0.53,1.03,0.53
		l2.41,0.26c0.69,0,1.61-0.17,2.75-0.53c1.15-0.35,2.29-0.97,3.44-1.85l3.44-2.38c2.52-2.47,5.04-5.65,7.56-9.54
		c2.52-3.88,4.01-7.33,4.47-10.33c-0.69-3.18-1.38-6.23-2.06-9.14c-0.69-2.91-1.03-5.17-1.03-6.76v-5.03L180.96,115.37z"/>
	<path class="st0" d="M242.49,115.63c0,4.6,1.03,9.36,3.09,14.31c2.06,4.95,4.35,9.54,6.88,13.78l1.03,2.12
		c2.06-2.12,4.69-5.08,7.9-8.88c3.21-3.8,6.41-7.59,9.63-11.39c3.21-3.8,6.13-7.11,8.77-9.94c2.63-2.82,4.52-4.24,5.67-4.24
		c2.98,0,4.47,1.15,4.47,3.44c0,0.71-0.12,1.24-0.34,1.59h-0.34c-4.81,6.18-9.86,12.32-15.12,18.41
		c-5.27,6.09-10.66,12.05-16.16,17.88c-0.46,0.36-0.69,0.71-0.69,1.06c0,0.71,0.05,1.37,0.17,1.99c0.11,0.62,0.17,1.28,0.17,1.99
		c0,6.71-2.35,12.14-7.04,16.29c-4.7,4.15-10.37,8.35-17.02,12.58l-5.84,2.65c-0.23,0-0.4,0.04-0.52,0.13
		c-0.11,0.09-0.28,0.13-0.52,0.13l-1.03,0.53c-0.46,0.17-1.03,0.26-1.72,0.26c-1.14,0-2.23-0.36-3.27-1.06
		c-1.03-0.71-1.55-1.5-1.55-2.38c0-1.42,0.57-3.05,1.72-4.9c1.15-1.85,2.52-3.75,4.13-5.7c1.61-1.95,3.27-3.75,4.98-5.43
		c1.72-1.68,3.15-3.13,4.3-4.37c3.66-4.06,7.22-7.86,10.66-11.39l-2.06-3.97l-2.06-2.92c-3.9-5.65-7.27-11.57-10.14-17.75
		c-2.86-6.18-4.3-12.01-4.3-17.49c0-5.47,1.67-9.76,4.98-12.85c3.32-3.09,7.96-4.64,13.92-4.64c1.6,0.18,3.21,0.62,4.81,1.32
		l2.41,1.32c1.83,1.06,2.75,2.56,2.75,4.5c0,1.42-0.69,2.65-2.06,3.71l-10.66,7.68V115.63z"/>
	<path class="st0" d="M285.11,76.42l14.78-2.12l3.09-7.15c0.69-1.59,1.43-3.27,2.23-5.03c0.8-1.76,1.66-3.35,2.58-4.77l5.16-10.07
		l2.75-4.24l1.72-1.85c0-0.17,0.23-0.44,0.69-0.79c0.46-0.35,0.91-0.62,1.38-0.79l3.09-1.32h5.5l4.47,2.38l2.06,2.65l0.34,3.97
		c-0.23,0.36-0.34,0.79-0.34,1.32l-0.69,1.59c-0.69,2.48-1.49,4.46-2.41,5.96c-0.92,1.5-1.84,3.05-2.75,4.64l-5.5,9.8l-0.69,1.06
		l175.99-22.52h1.38c2.29,0,4.35,0.62,6.19,1.85c1.83,1.24,2.75,2.83,2.75,4.77c0,1.59-0.69,3.01-2.06,4.24
		c-1.38,1.24-3.09,2.03-5.16,2.38L317.07,79.87c-6.65,9.36-11.92,19.43-15.81,30.2c-3.9,10.78-7.68,20.93-11.34,30.47l-5.16,14.84
		c-1.83,5.13-3.49,10.64-4.98,16.56c-1.49,5.92-2.12,11.26-1.89,16.03c0,0.7,0.06,1.5,0.17,2.38c0.12,0.88,0.29,1.41,0.52,1.59
		l0.34,0.26c1.15-0.89,3.84-2.7,8.08-5.43c4.24-2.74,8.3-6.14,12.2-10.2c1.38-1.42,2.58-2.87,3.61-4.37
		c1.03-1.5,2.35-2.96,3.95-4.37l10.31-13.25l15.47-23.05l8.59-14.04l2.75-4.77c0.91-1.06,2.06-1.59,3.44-1.59
		c2.52,0,3.78,0.97,3.78,2.91c0,0.18-0.06,0.36-0.17,0.53c-0.12,0.18-0.17,0.36-0.17,0.53l-3.09,4.77l-9.28,14.04l-12.72,18.28
		l-6.53,9.27l-14.44,17.75c-3.21,3.53-6.48,6.93-9.8,10.2c-3.32,3.27-7.51,5.87-12.55,7.82l-2.41,0.53c-0.23,0-0.4,0.04-0.52,0.13
		c-0.11,0.09-0.4,0.13-0.86,0.13c-0.91,0-2.06-0.27-3.44-0.79l-1.38-0.79c-2.06-1.42-3.09-2.74-3.09-3.97
		c0-1.24-0.23-2.56-0.69-3.97v-2.91c0-0.89,0-1.81,0-2.78c0-0.97,0.12-1.9,0.34-2.78l0.69-5.03c0.23-0.89,0.4-1.81,0.52-2.78
		c0.12-0.97,0.17-1.9,0.17-2.78l3.44-15.63l1.03-5.03l8.94-31.53c-2.29-0.7-3.44-1.76-3.44-3.18c0-0.35,0.12-0.62,0.34-0.79
		l2.41-5.03l2.41-4.77l7.56-14.04l0.69-1.85l2.06-5.56l-10.66,0.79h-0.69c-1.14,0-2.12-0.27-2.92-0.79c-0.8-0.53-1.2-1.32-1.2-2.38
		C281.67,77.84,282.82,76.78,285.11,76.42z"/>
</g>
</svg>
